<?xml version="1.0" standalone="no"?>
<!DOCTYPE svg PUBLIC "-//W3C//DTD SVG 20010904//EN"
 "http://www.w3.org/TR/2001/REC-SVG-20010904/DTD/svg10.dtd">
<svg version="1.0" xmlns="http://www.w3.org/2000/svg"
 width="152.000000pt" height="152.000000pt" viewBox="0 0 152.000000 152.000000"
 preserveAspectRatio="xMidYMid meet">
<metadata>
Created by potrace 1.14, written by Peter Selinger 2001-2017
</metadata>
<g transform="translate(0.000000,152.000000) scale(0.100000,-0.100000)"
fill="#000000" stroke="none">
<path d="M155 1208 c-3 -7 -4 -182 -3 -388 l3 -375 123 -3 123 -3 -3 23 c-3
22 -8 23 -100 26 l-98 3 0 344 0 345 560 0 560 0 0 -345 0 -345 -86 0 c-91 0
-127 -11 -117 -35 4 -13 26 -15 127 -13 l121 3 0 385 0 385 -603 3 c-478 2
-604 0 -607 -10z"/>
<path d="M801 1007 c-17 -21 -102 -258 -95 -268 17 -27 39 5 84 121 27 69 49
130 50 136 0 17 -27 25 -39 11z"/>
<path d="M498 908 c-91 -38 -116 -58 -85 -71 191 -82 207 -87 207 -64 0 8 -32
26 -72 42 -40 15 -77 31 -81 35 -5 4 28 22 72 40 47 18 81 38 81 46 0 21 -16
17 -122 -28z"/>
<path d="M902 934 c2 -10 34 -29 80 -47 43 -16 75 -33 73 -37 -3 -4 -17 -11
-32 -15 -56 -14 -123 -48 -123 -62 0 -12 7 -13 28 -8 49 12 194 84 188 94 -7
10 -188 91 -205 91 -7 0 -11 -7 -9 -16z"/>
<path d="M541 491 c-9 -6 -10 -11 -2 -15 6 -4 11 -3 11 3 0 5 8 12 18 14 12 3
13 5 2 6 -8 0 -21 -3 -29 -8z"/>
<path d="M922 488 c-7 -7 -12 -17 -12 -22 0 -6 4 -4 10 4 7 12 12 11 28 -8 17
-19 21 -20 32 -7 25 30 -29 62 -58 33z m53 -9 c12 -19 -5 -23 -22 -6 -16 16
-16 17 -1 17 9 0 20 -5 23 -11z"/>
<path d="M597 469 c4 -13 8 -18 11 -10 2 7 -1 18 -6 23 -8 8 -9 4 -5 -13z"/>
<path d="M746 442 c-2 -4 4 -8 14 -8 10 0 16 4 14 8 -3 4 -9 8 -14 8 -5 0 -11
-4 -14 -8z"/>
<path d="M447 333 c-4 -3 -7 -12 -7 -20 0 -11 57 -13 317 -11 293 3 318 4 321
21 3 16 -17 17 -311 17 -172 0 -317 -3 -320 -7z"/>
</g>
</svg>
